<?xml version="1.0" encoding="utf-8"?>
<!-- Generator: Adobe Illustrator 18.1.1, SVG Export Plug-In . SVG Version: 6.00 Build 0)  -->
<svg version="1.1" id="Layer_1" xmlns="http://www.w3.org/2000/svg" xmlns:xlink="http://www.w3.org/1999/xlink" x="0px" y="0px"
	 viewBox="0 0 480 450" enable-background="new 0 0 480 450" xml:space="preserve">
<g>
	<path fill="#B4191D" d="M331.4,231.9c0-12.4-9.7-22.1-22.5-22.1c-12.8,0-22.5,9.7-22.5,22.1c0,12.8,9.7,22.8,22.5,22.8
		C321.7,254.7,331.4,244.7,331.4,231.9L331.4,231.9z M323.1,231.9c0,8.9-6.4,15.7-14.3,15.7s-14.3-6.8-14.3-15.7
		c0-8.6,6.4-15.1,14.3-15.1S323.1,223.4,323.1,231.9L323.1,231.9z M284.9,222.6c0-8.2-6.5-12.8-14.2-12.8c-10.4,0-14.4,8.7-14.4,8.7
		l5.5,3.8c0,0,3.1-5.4,8.2-5.4c3.7,0,6.6,2.1,6.6,6.2c0,9.4-20.8,11.4-20.8,27.1c0,1.2,0.2,2.4,0.4,3.9h30.1V242h-6.9v5.5h-15
		C264.7,238.6,284.9,236.1,284.9,222.6L284.9,222.6z"/>
	<path fill="#81B13E" d="M377.5,210c0-7.3-5.6-13-13.3-13c-7.7,0-13.3,5.7-13.3,13c0,7.5,5.6,13.3,13.3,13.3
		C371.9,223.2,377.5,217.4,377.5,210L377.5,210z M370.9,210c0,4.4-3.1,7.8-6.8,7.8c-3.7,0-6.8-3.3-6.8-7.8c0-4.3,3.1-7.5,6.8-7.5
		C367.9,202.5,370.9,205.7,370.9,210L370.9,210z M331.7,222.8H350v-8h-5.3v3h-6.4c0.2-3.9,11.1-5.6,11.1-13.1c0-5.4-4.6-7.8-8.7-7.8
		c-6.6,0-8.9,5.5-8.9,5.5l4.3,2.9c0,0,1.7-2.9,4.1-2.9c1.3,0,2.7,0.6,2.7,2.6c0,4.3-11.4,5.6-11.4,14.9
		C331.4,220.9,331.5,221.8,331.7,222.8L331.7,222.8z"/>
	<path fill="#3E95D4" d="M256.8,231.8c0-1.5-0.1-2.8-0.4-4.1c-1.8-10.5-10.4-18.2-21.9-18.2c-13,0-22.8,9.9-22.8,22.5
		c0,13,9.8,23.1,22.8,23.1c4.1,0,7.8-1,11-2.8l-4-6.4c-2.1,1.3-4.5,2-7.1,2c-7.9,0-14.5-6.9-14.5-16c0-8.7,6.5-15.3,14.5-15.3
		c7.9,0,14.5,6.6,14.5,15.3c0,0.9-0.2,2.6-0.2,2.6c-0.2,1.4-1.1,2.5-2.4,2.5c-1.3,0-2.4-1.1-2.5-2.4v-4.6c0-5.2-3.1-8.1-8.8-8.1
		c-5,0-8.4,2.6-8.4,2.6l2.1,4.1c0,0,3-1.4,5.7-1.4c1.5,0,2.8,0.6,2.8,2.2v0.6h-1.2c-3.1,0-10.6,0.8-10.6,6.7c0,4,3,6.1,6.5,6.1
		c4.2,0,5.8-3.3,5.8-3.3h0.1c0,0,0,0,0,0c1.7,3.9,6.1,4.3,8.5,4.3C252.5,243.6,256.8,239,256.8,231.8L256.8,231.8z M237.3,234
		c0,1.7-1.7,4.1-3.4,4.1c-1.5,0-2.2-0.8-2.2-2.1c0-1.8,2.7-2.5,4.9-2.5h0.6V234L237.3,234z M210.8,238.3c0-9.7-5.4-16.3-13.9-16.3
		c-6.5,0-9.4,4.6-9.4,4.6h-0.1c0,0,0.1-1.1,0.1-2.6v-20.6H175v5.8h4.8v44.7h7.3v-1.9c0-1.2-0.1-2.3-0.1-2.3h0.1c0,0,2.5,5,9.3,5
		C204.7,254.7,210.8,248.3,210.8,238.3L210.8,238.3z M203,238.5c0,6.2-3.6,9.7-7.9,9.7c-5.2,0-7.7-4.8-7.7-9.6
		c0-6.9,3.8-9.9,7.8-9.9C199.8,228.7,203,232.5,203,238.5L203,238.5z M171.1,228.6h3.2v-5.8H155c-0.2,1.2-0.4,2.2-0.4,3.3
		c0,11.6,14.2,13.2,14.2,18.6c0,2.6-1.8,3.3-3.4,3.3c-3,0-5.1-3.6-5.1-3.6l-5.3,3.7c0,0,2.9,6.8,11.1,6.8c5.2,0,10.9-3,10.9-9.7
		c0-9.3-13.6-11.6-13.8-16.5H171.1L171.1,228.6z M136.8,253.9h16.8v-5.8h-4.5v-25.4h-12.6v5.8h4.8v19.6h-4.5V253.9L136.8,253.9z
		 M150,207.7c0-2.8-2.2-5-5.1-5c-3,0-5.1,2.2-5.1,5c0,2.9,2.2,5.1,5.1,5.1C147.8,212.8,150,210.6,150,207.7L150,207.7z M102,253.9
		h32.9v-13.2h-6.9v6.7h-12.8v-37.7h5.3v-6.4H102v6.4h5.2V248H102V253.9L102,253.9z"/>
</g>
</svg>
